<?xml version="1.0" encoding="utf-8"?>
<!-- Generator: Adobe Illustrator 18.0.0, SVG Export Plug-In . SVG Version: 6.00 Build 0)  -->
<!DOCTYPE svg PUBLIC "-//W3C//DTD SVG 1.1//EN" "http://www.w3.org/Graphics/SVG/1.1/DTD/svg11.dtd">
<svg version="1.1" id="Layer_1" xmlns="http://www.w3.org/2000/svg" xmlns:xlink="http://www.w3.org/1999/xlink" x="0px" y="0px"
	 viewBox="0 0 375 201.6" enable-background="new 0 0 375 201.6" xml:space="preserve">
<g>
	<defs>
		<rect id="SVGID_1_" y="-141.8" width="375" height="667"/>
	</defs>
	<clipPath id="SVGID_2_">
		<use xlink:href="#SVGID_1_"  overflow="visible"/>
	</clipPath>
	<g clip-path="url(#SVGID_2_)" enable-background="new    ">
		<g>
			<defs>
				<rect id="SVGID_3_" y="-141.8" width="375" height="667"/>
			</defs>
			<clipPath id="SVGID_4_">
				<use xlink:href="#SVGID_3_"  overflow="visible"/>
			</clipPath>
			<g display="none" clip-path="url(#SVGID_4_)">
				<defs>
					<rect id="SVGID_5_" y="-141.8" width="375" height="667"/>
				</defs>
				<clipPath id="SVGID_6_" display="inline">
					<use xlink:href="#SVGID_5_"  overflow="visible"/>
				</clipPath>
				<rect y="-141.8" display="inline" clip-path="url(#SVGID_6_)" fill="#FFD700" width="375" height="667"/>
			</g>
			<g clip-path="url(#SVGID_4_)">
				<defs>
					<path id="SVGID_7_" d="M324.3,291.9v2.4c-2.5-1.5-4.6-2.2-6.4-2.2c-1.7,0-3.2,0.5-4.3,1.6c-1.2,1-1.7,2.3-1.7,3.9
						c0,1.1,0.3,2.1,1,3c0.7,0.9,2.1,1.7,4.3,2.6c2.2,0.8,3.8,1.5,4.8,2.1c1,0.5,1.8,1.3,2.5,2.4c0.7,1,1,2.4,1,4
						c0,2.2-0.8,4.1-2.4,5.6c-1.6,1.5-3.6,2.3-5.9,2.3c-2.4,0-4.8-0.8-7.3-2.5v-2.6c2.8,2,5.2,3.1,7.2,3.1c1.7,0,3.1-0.6,4.3-1.7
						c1.2-1.1,1.8-2.5,1.8-4.1c0-1.2-0.4-2.3-1.1-3.3c-0.7-1-2.2-1.9-4.4-2.7s-3.8-1.5-4.7-2.1c-1-0.5-1.8-1.3-2.4-2.2
						c-0.7-1-1-2.2-1-3.7c0-2.1,0.8-3.9,2.4-5.4c1.6-1.5,3.6-2.2,5.8-2.2C319.9,290.1,322.1,290.7,324.3,291.9z M289,292.3v11.2h4.8
						c2.4,0,4.3-0.5,5.5-1.5c1.3-1,1.9-2.4,1.9-4.2c0-1.8-0.6-3.1-1.9-4.1c-1.3-1-3.2-1.5-5.6-1.5H289z M286.8,290.5h7.3
						c3.1,0,5.4,0.7,7.1,2c1.6,1.3,2.4,3.1,2.4,5.4c0,3.3-1.8,5.6-5.5,7c0.9,0.5,2.2,1.9,3.8,4.4l6.5,9.9h-2.6l-5-7.9
						c-1.7-2.6-3-4.3-3.9-4.9c-0.9-0.6-2.3-1-4.1-1H289v13.7h-2.2V290.5z M281.8,290.5v1.8h-13.4v11.5h13.1v1.9h-13.1v11.6h13.7v1.8
						h-16v-28.6H281.8z M246.4,303.8l10.9-13.3h2.2v28.6h-2.2v-25.4l-10.9,13.4l-10.9-13.4v25.4h-2.2v-28.6h2.2L246.4,303.8z
						 M213.6,303.8l10.9-13.3h2.2v28.6h-2.2v-25.4l-10.9,13.4l-10.9-13.4v25.4h-2.2v-28.6h2.2L213.6,303.8z M189.4,307.4l-6.2-13.5
						l-6.1,13.5H189.4z M183.9,290.3l13.2,28.9h-2.3l-4.5-9.9h-14l-4.5,9.9h-2.3l13.2-28.9H183.9z M150.7,292.3v11.2h4.8
						c2.4,0,4.3-0.5,5.5-1.5c1.3-1,1.9-2.4,1.9-4.2c0-1.8-0.6-3.1-1.9-4.1c-1.3-1-3.2-1.5-5.6-1.5H150.7z M148.5,290.5h7.3
						c3.1,0,5.4,0.7,7.1,2c1.6,1.3,2.4,3.1,2.4,5.4c0,3.3-1.8,5.6-5.5,7c0.9,0.5,2.2,1.9,3.8,4.4l6.5,9.9h-2.6l-5-7.9
						c-1.7-2.6-3-4.3-3.9-4.9c-0.9-0.6-2.3-1-4.1-1h-3.9v13.7h-2.2V290.5z M142.3,292.6v2.5c-3.4-1.9-6.8-2.9-10.2-2.9
						c-3.6,0-6.6,1.2-9,3.6c-2.4,2.4-3.6,5.4-3.6,9c0,3.6,1.2,6.6,3.6,9c2.4,2.4,5.6,3.6,9.7,3.6c3,0,5.6-0.6,7.9-1.8V308h-6v-1.8
						h8.3v11c-3.4,1.6-6.8,2.4-10.2,2.4c-4.4,0-8.2-1.4-11.1-4.2c-3-2.8-4.5-6.3-4.5-10.5c0-4.2,1.5-7.7,4.4-10.4
						c2.9-2.8,6.6-4.2,11-4.2C135.4,290.1,138.7,290.9,142.3,292.6z M97.7,317.5c3.6,0,6.6-1.2,9-3.7c2.5-2.4,3.7-5.4,3.7-9
						c0-3.6-1.2-6.6-3.7-9c-2.5-2.4-5.5-3.7-9-3.7c-3.6,0-6.6,1.2-9.1,3.7c-2.5,2.4-3.7,5.4-3.7,9c0,3.5,1.2,6.5,3.7,9
						C91.1,316.3,94.1,317.5,97.7,317.5z M97.6,290.1c4.2,0,7.8,1.4,10.8,4.3c2.9,2.9,4.4,6.3,4.4,10.4c0,4.1-1.5,7.6-4.4,10.4
						s-6.5,4.3-10.8,4.3c-4.2,0-7.8-1.4-10.7-4.3c-2.9-2.9-4.4-6.3-4.4-10.4c0-4.1,1.5-7.6,4.4-10.4
						C89.8,291.6,93.4,290.1,97.6,290.1z M77.1,290.5v28.6h-1.8l-21.8-25v25h-2.2v-28.6h1.9l21.7,25v-25H77.1z"/>
				</defs>
				<clipPath id="SVGID_8_">
					<use xlink:href="#SVGID_7_"  overflow="visible"/>
				</clipPath>
				<g clip-path="url(#SVGID_8_)">
					<defs>
						<rect id="SVGID_9_" y="-141.8" width="375" height="667"/>
					</defs>
					<clipPath id="SVGID_10_">
						<use xlink:href="#SVGID_9_"  overflow="visible"/>
					</clipPath>
					<rect x="46.3" y="285.1" clip-path="url(#SVGID_10_)" fill="#212121" width="284.2" height="39.4"/>
				</g>
			</g>
			<g clip-path="url(#SVGID_4_)">
				<defs>
					<path id="SVGID_11_" d="M289,292.3v11.2h4.8c2.4,0,4.3-0.5,5.5-1.5c1.3-1,1.9-2.4,1.9-4.2c0-1.8-0.6-3.1-1.9-4.1
						c-1.3-1-3.2-1.5-5.6-1.5H289z"/>
				</defs>
				<clipPath id="SVGID_12_">
					<use xlink:href="#SVGID_11_"  overflow="visible"/>
				</clipPath>
				<g clip-path="url(#SVGID_12_)">
					<defs>
						<rect id="SVGID_13_" y="-141.8" width="375" height="667"/>
					</defs>
					<clipPath id="SVGID_14_">
						<use xlink:href="#SVGID_13_"  overflow="visible"/>
					</clipPath>
				</g>
			</g>
			<g clip-path="url(#SVGID_4_)">
				<defs>
					<polygon id="SVGID_15_" points="189.4,307.4 183.2,293.9 177.1,307.4 					"/>
				</defs>
				<clipPath id="SVGID_16_">
					<use xlink:href="#SVGID_15_"  overflow="visible"/>
				</clipPath>
				<g clip-path="url(#SVGID_16_)">
					<defs>
						<rect id="SVGID_17_" y="-141.8" width="375" height="667"/>
					</defs>
					<clipPath id="SVGID_18_">
						<use xlink:href="#SVGID_17_"  overflow="visible"/>
					</clipPath>
				</g>
			</g>
			<g clip-path="url(#SVGID_4_)">
				<defs>
					<path id="SVGID_19_" d="M150.7,292.3v11.2h4.8c2.4,0,4.3-0.5,5.5-1.5c1.3-1,1.9-2.4,1.9-4.2c0-1.8-0.6-3.1-1.9-4.1
						c-1.3-1-3.2-1.5-5.6-1.5H150.7z"/>
				</defs>
				<clipPath id="SVGID_20_">
					<use xlink:href="#SVGID_19_"  overflow="visible"/>
				</clipPath>
				<g clip-path="url(#SVGID_20_)">
					<defs>
						<rect id="SVGID_21_" y="-141.8" width="375" height="667"/>
					</defs>
					<clipPath id="SVGID_22_">
						<use xlink:href="#SVGID_21_"  overflow="visible"/>
					</clipPath>
				</g>
			</g>
			<g clip-path="url(#SVGID_4_)">
				<defs>
					<path id="SVGID_23_" d="M97.7,317.5c3.6,0,6.6-1.2,9-3.7c2.5-2.4,3.7-5.4,3.7-9c0-3.6-1.2-6.6-3.7-9c-2.5-2.4-5.5-3.7-9-3.7
						c-3.6,0-6.6,1.2-9.1,3.7c-2.5,2.4-3.7,5.4-3.7,9c0,3.5,1.2,6.5,3.7,9C91.1,316.3,94.1,317.5,97.7,317.5z"/>
				</defs>
				<clipPath id="SVGID_24_">
					<use xlink:href="#SVGID_23_"  overflow="visible"/>
				</clipPath>
				<g clip-path="url(#SVGID_24_)">
					<defs>
						<rect id="SVGID_25_" y="-141.8" width="375" height="667"/>
					</defs>
					<clipPath id="SVGID_26_">
						<use xlink:href="#SVGID_25_"  overflow="visible"/>
					</clipPath>
				</g>
			</g>
			<g clip-path="url(#SVGID_4_)">
				<defs>
					<rect id="SVGID_27_" y="-141.8" width="375" height="667"/>
				</defs>
				<clipPath id="SVGID_28_">
					<use xlink:href="#SVGID_27_"  overflow="visible"/>
				</clipPath>
				<g clip-path="url(#SVGID_28_)">
					<text transform="matrix(1 0 0 1 172 276.1537)" fill="#2C2C2C" font-family="'GillSans-Light'" font-size="21">from</text>
				</g>
				<g clip-path="url(#SVGID_28_)">
					<text transform="matrix(1 0 0 1 154 348.1537)"><tspan x="0" y="0" fill="#2C2C2C" font-family="'GillSans-Light'" font-size="21">with l</tspan><tspan x="45.2" y="0" fill="#2C2C2C" font-family="'GillSans-Light'" font-size="21">o</tspan><tspan x="56.2" y="0" fill="#2C2C2C" font-family="'GillSans-Light'" font-size="21">v</tspan><tspan x="64.9" y="0" fill="#2C2C2C" font-family="'GillSans-Light'" font-size="21">e</tspan></text>
				</g>
				<g clip-path="url(#SVGID_28_)">
					<text transform="matrix(1 0 0 1 74.7012 517.1537)" fill="#2C2C2C" font-family="'Pacifico-Regular'" font-size="12">Catherine Hedler, Pak Lau, Fanny Lindh, Bruno Söderström</text>
				</g>
			</g>
			<g clip-path="url(#SVGID_4_)">
				<defs>
					<path id="SVGID_29_" d="M170.9,76v24.4H154V27.5h25.7c5.1,0,9.5,0.6,13.2,1.8c3.7,1.2,6.7,2.9,9.1,5c2.4,2.1,4.1,4.7,5.3,7.6
						c1.1,2.9,1.7,6,1.7,9.4c0,3.6-0.6,7-1.8,10c-1.2,3-3,5.6-5.4,7.8c-2.4,2.2-5.4,3.9-9.1,5.1c-3.7,1.2-8,1.8-13.1,1.8H170.9z
						 M170.9,63.2h8.8c4.4,0,7.6-1.1,9.5-3.2c1.9-2.1,2.9-5,2.9-8.8c0-1.7-0.2-3.2-0.8-4.5c-0.5-1.4-1.3-2.5-2.3-3.5
						c-1-1-2.3-1.7-3.9-2.3c-1.6-0.5-3.4-0.8-5.5-0.8h-8.8V63.2z"/>
				</defs>
				<clipPath id="SVGID_30_">
					<use xlink:href="#SVGID_29_"  overflow="visible"/>
				</clipPath>
				<g clip-path="url(#SVGID_30_)">
					<defs>
						<rect id="SVGID_31_" y="-141.8" width="375" height="667"/>
					</defs>
					<clipPath id="SVGID_32_">
						<use xlink:href="#SVGID_31_"  overflow="visible"/>
					</clipPath>
					<rect x="149" y="22.5" clip-path="url(#SVGID_32_)" width="65" height="82.9"/>
				</g>
			</g>
			<g clip-path="url(#SVGID_4_)">
				<defs>
					<path id="SVGID_33_" d="M234.7,76v24.4h-16.9V27.5h25.7c5.1,0,9.5,0.6,13.2,1.8c3.7,1.2,6.7,2.9,9.1,5c2.4,2.1,4.1,4.7,5.3,7.6
						s1.7,6,1.7,9.4c0,3.6-0.6,7-1.8,10c-1.2,3-3,5.6-5.4,7.8c-2.4,2.2-5.4,3.9-9.1,5.1c-3.7,1.2-8,1.8-13.1,1.8H234.7z M234.7,63.2
						h8.8c4.4,0,7.6-1.1,9.5-3.2c1.9-2.1,2.9-5,2.9-8.8c0-1.7-0.2-3.2-0.8-4.5c-0.5-1.4-1.3-2.5-2.3-3.5c-1-1-2.3-1.7-3.9-2.3
						c-1.6-0.5-3.4-0.8-5.5-0.8h-8.8V63.2z"/>
				</defs>
				<clipPath id="SVGID_34_">
					<use xlink:href="#SVGID_33_"  overflow="visible"/>
				</clipPath>
				<g clip-path="url(#SVGID_34_)">
					<defs>
						<rect id="SVGID_35_" y="-141.8" width="375" height="667"/>
					</defs>
					<clipPath id="SVGID_36_">
						<use xlink:href="#SVGID_35_"  overflow="visible"/>
					</clipPath>
					<rect x="212.8" y="22.5" clip-path="url(#SVGID_36_)" width="65" height="82.9"/>
				</g>
			</g>
			<g clip-path="url(#SVGID_4_)">
				<defs>
					<rect id="SVGID_37_" x="46" y="26.7" width="283.6" height="148.5"/>
				</defs>
				<clipPath id="SVGID_38_">
					<use xlink:href="#SVGID_37_"  overflow="visible"/>
				</clipPath>
				<g clip-path="url(#SVGID_38_)">
					<defs>
						<rect id="SVGID_39_" y="-141.8" width="375" height="667"/>
					</defs>
					<clipPath id="SVGID_40_">
						<use xlink:href="#SVGID_39_"  overflow="visible"/>
					</clipPath>
					<g clip-path="url(#SVGID_40_)" enable-background="new    ">
						<g>
							<defs>
								<rect id="SVGID_41_" x="276" y="26.2" width="52" height="75"/>
							</defs>
							<clipPath id="SVGID_42_">
								<use xlink:href="#SVGID_41_"  overflow="visible"/>
							</clipPath>
							<g clip-path="url(#SVGID_42_)">
								<defs>
									<path id="SVGID_43_" d="M322.2,42.3c-0.5,0.8-1,1.4-1.6,1.8c-0.6,0.4-1.3,0.6-2.1,0.6c-0.8,0-1.6-0.2-2.5-0.7
										c-0.9-0.5-1.9-1-3-1.6c-1.1-0.6-2.4-1.1-3.8-1.6c-1.4-0.5-3.1-0.7-4.9-0.7c-3.2,0-5.5,0.7-7.1,2c-1.5,1.3-2.3,3.2-2.3,5.5
										c0,1.5,0.5,2.7,1.4,3.7c0.9,1,2.2,1.8,3.7,2.5c1.5,0.7,3.2,1.3,5.2,1.9c1.9,0.6,3.9,1.2,6,2c2,0.7,4,1.6,6,2.5
										c1.9,1,3.7,2.2,5.2,3.7s2.7,3.3,3.7,5.5c0.9,2.1,1.4,4.7,1.4,7.8c0,3.4-0.6,6.5-1.8,9.5s-2.9,5.5-5.1,7.7
										c-2.2,2.2-4.9,3.9-8.2,5.2s-6.9,1.9-11.1,1.9c-2.3,0-4.6-0.2-6.9-0.7c-2.4-0.5-4.6-1.1-6.8-2c-2.2-0.9-4.3-1.9-6.2-3
										c-1.9-1.2-3.6-2.5-5-3.9l5-7.9c0.4-0.6,0.9-1.1,1.5-1.5c0.7-0.4,1.4-0.5,2.2-0.5c1,0,2,0.3,3,0.9c1,0.6,2.2,1.3,3.4,2.1
										c1.3,0.8,2.8,1.5,4.4,2.1s3.6,0.9,5.9,0.9c3.1,0,5.4-0.7,7.1-2c1.7-1.4,2.6-3.5,2.6-6.4c0-1.7-0.5-3.1-1.4-4.1
										c-0.9-1.1-2.2-2-3.7-2.7c-1.5-0.7-3.2-1.3-5.2-1.8c-1.9-0.5-3.9-1.1-5.9-1.8c-2-0.6-4-1.4-6-2.4c-1.9-0.9-3.7-2.2-5.2-3.8
										c-1.5-1.5-2.7-3.5-3.7-5.8c-0.9-2.3-1.4-5.2-1.4-8.6c0-2.7,0.6-5.4,1.7-8c1.1-2.6,2.7-4.9,4.8-6.9c2.1-2,4.8-3.7,7.9-4.9
										c3.1-1.2,6.6-1.8,10.6-1.8c2.2,0,4.4,0.2,6.5,0.5c2.1,0.4,4.1,0.9,6,1.6c1.9,0.7,3.7,1.5,5.3,2.4c1.7,1,3.1,2,4.4,3.2
										L322.2,42.3z"/>
								</defs>
								<clipPath id="SVGID_44_">
									<use xlink:href="#SVGID_43_"  overflow="visible"/>
								</clipPath>
								<g clip-path="url(#SVGID_44_)">
									<defs>
										<rect id="SVGID_45_" x="276" y="26.2" width="52" height="75"/>
									</defs>
									<clipPath id="SVGID_46_">
										<use xlink:href="#SVGID_45_"  overflow="visible"/>
									</clipPath>
									<rect x="271.3" y="21.7" clip-path="url(#SVGID_46_)" width="61.1" height="84.5"/>
								</g>
							</g>
						</g>
					</g>
				</g>
			</g>
			<g clip-path="url(#SVGID_4_)">
				<defs>
					<path id="SVGID_47_" d="M46,174.4h13.2c1.4,0,2.6-0.4,3.5-1.1s1.6-1.6,1.9-2.5L69,158h27.7l4.3,12.7c0.4,1.1,1,1.9,2,2.6
						c1,0.7,2.2,1,3.6,1h13.1l-28.2-72.9L97.4,84h27.7l4.3,12.7c0.4,1.1,1,1.9,2,2.6c0.9,0.7,2.2,1,3.6,1h13.1l-28.2-72.9h-17.3
						L46,174.4z M92.8,146.5H72.9l6.7-19.9c0.5-1.3,1-2.8,1.6-4.5c0.6-1.7,1.1-3.6,1.7-5.6c0.6,2,1.1,3.9,1.7,5.6
						c0.6,1.7,1.1,3.2,1.5,4.5L92.8,146.5z M101.3,72.5l6.7-19.9c0.5-1.3,1-2.8,1.6-4.5c0.6-1.7,1.1-3.6,1.7-5.6
						c0.6,2,1.1,3.9,1.7,5.6c0.6,1.7,1.1,3.2,1.5,4.5l6.7,20H101.3z"/>
				</defs>
				<clipPath id="SVGID_48_">
					<use xlink:href="#SVGID_47_"  overflow="visible"/>
				</clipPath>
				<g clip-path="url(#SVGID_48_)">
					<defs>
						<rect id="SVGID_49_" y="-141.8" width="375" height="667"/>
					</defs>
					<clipPath id="SVGID_50_">
						<use xlink:href="#SVGID_49_"  overflow="visible"/>
					</clipPath>
					<rect x="41" y="22.5" clip-path="url(#SVGID_50_)" width="112.1" height="156.9"/>
				</g>
			</g>
			<g clip-path="url(#SVGID_4_)">
				<defs>
					<rect id="SVGID_51_" x="46" y="26.7" width="283.6" height="148.5"/>
				</defs>
				<clipPath id="SVGID_52_">
					<use xlink:href="#SVGID_51_"  overflow="visible"/>
				</clipPath>
				<g clip-path="url(#SVGID_52_)">
					<defs>
						<rect id="SVGID_53_" y="-141.8" width="375" height="667"/>
					</defs>
					<clipPath id="SVGID_54_">
						<use xlink:href="#SVGID_53_"  overflow="visible"/>
					</clipPath>
					<g clip-path="url(#SVGID_54_)" enable-background="new    ">
						<g>
							<defs>
								<rect id="SVGID_55_" x="120" y="100.2" width="52" height="75"/>
							</defs>
							<clipPath id="SVGID_56_">
								<use xlink:href="#SVGID_55_"  overflow="visible"/>
							</clipPath>
							<g clip-path="url(#SVGID_56_)">
								<defs>
									<path id="SVGID_57_" d="M166.2,116.3c-0.5,0.8-1,1.4-1.6,1.8c-0.6,0.4-1.3,0.6-2.1,0.6c-0.8,0-1.6-0.2-2.5-0.7
										c-0.9-0.5-1.9-1-3-1.6c-1.1-0.6-2.4-1.1-3.8-1.6c-1.4-0.5-3.1-0.7-4.9-0.7c-3.2,0-5.5,0.7-7.1,2c-1.5,1.4-2.3,3.2-2.3,5.5
										c0,1.5,0.5,2.7,1.4,3.6c0.9,1,2.2,1.8,3.7,2.5c1.5,0.7,3.2,1.3,5.2,1.9c2,0.6,3.9,1.2,6,1.9c2,0.7,4,1.6,6,2.5
										c1.9,1,3.7,2.2,5.2,3.7s2.7,3.3,3.7,5.5c0.9,2.1,1.4,4.7,1.4,7.8c0,3.4-0.6,6.5-1.8,9.5c-1.2,2.9-2.9,5.5-5.1,7.7
										c-2.2,2.2-4.9,3.9-8.2,5.1s-6.9,1.9-11.1,1.9c-2.3,0-4.6-0.2-6.9-0.7c-2.4-0.5-4.6-1.1-6.8-2c-2.2-0.9-4.3-1.9-6.2-3
										c-1.9-1.2-3.6-2.5-5-3.9l5-7.9c0.4-0.6,0.9-1.1,1.5-1.4c0.7-0.4,1.4-0.6,2.2-0.6c1,0,2,0.3,3,1c1,0.6,2.2,1.3,3.4,2.1
										c1.3,0.8,2.8,1.5,4.4,2.1c1.7,0.6,3.6,1,5.9,1c3.1,0,5.5-0.7,7.1-2c1.7-1.4,2.6-3.5,2.6-6.4c0-1.7-0.5-3.1-1.4-4.1
										c-0.9-1.1-2.2-1.9-3.7-2.6c-1.5-0.7-3.2-1.3-5.2-1.9c-1.9-0.5-3.9-1.1-6-1.8c-2-0.6-4-1.5-6-2.4c-1.9-1-3.7-2.2-5.2-3.8
										c-1.5-1.6-2.7-3.5-3.7-5.8c-0.9-2.3-1.4-5.2-1.4-8.6c0-2.7,0.6-5.4,1.7-8c1.1-2.6,2.7-4.9,4.8-7c2.1-2,4.8-3.7,7.8-4.9
										c3.1-1.2,6.7-1.8,10.7-1.8c2.2,0,4.4,0.2,6.5,0.5c2.1,0.4,4.1,0.9,6,1.5c1.9,0.7,3.7,1.5,5.3,2.5c1.7,0.9,3.1,2,4.4,3.2
										L166.2,116.3z"/>
								</defs>
								<clipPath id="SVGID_58_">
									<use xlink:href="#SVGID_57_"  overflow="visible"/>
								</clipPath>
								<g clip-path="url(#SVGID_58_)">
									<defs>
										<rect id="SVGID_59_" x="120" y="100.2" width="52" height="75"/>
									</defs>
									<clipPath id="SVGID_60_">
										<use xlink:href="#SVGID_59_"  overflow="visible"/>
									</clipPath>
									<rect x="115.3" y="95.7" clip-path="url(#SVGID_60_)" width="61.1" height="84.4"/>
								</g>
							</g>
						</g>
					</g>
				</g>
			</g>
			<g clip-path="url(#SVGID_4_)">
				<defs>
					<rect id="SVGID_61_" x="46" y="26.7" width="283.6" height="148.5"/>
				</defs>
				<clipPath id="SVGID_62_">
					<use xlink:href="#SVGID_61_"  overflow="visible"/>
				</clipPath>
				<g clip-path="url(#SVGID_62_)">
					<defs>
						<rect id="SVGID_63_" y="-141.8" width="375" height="667"/>
					</defs>
					<clipPath id="SVGID_64_">
						<use xlink:href="#SVGID_63_"  overflow="visible"/>
					</clipPath>
					<g clip-path="url(#SVGID_64_)" enable-background="new    ">
						<g>
							<defs>
								<rect id="SVGID_65_" x="174" y="100.2" width="52" height="75"/>
							</defs>
							<clipPath id="SVGID_66_">
								<use xlink:href="#SVGID_65_"  overflow="visible"/>
							</clipPath>
							<g clip-path="url(#SVGID_66_)">
								<defs>
									<path id="SVGID_67_" d="M220.4,116.3c-0.5,0.8-1,1.4-1.6,1.8c-0.6,0.4-1.3,0.6-2.1,0.6c-0.8,0-1.6-0.2-2.5-0.7
										c-0.9-0.5-1.9-1-3-1.6c-1.1-0.6-2.4-1.1-3.8-1.6s-3.1-0.7-4.9-0.7c-3.2,0-5.5,0.7-7.1,2c-1.5,1.4-2.3,3.2-2.3,5.5
										c0,1.5,0.5,2.7,1.4,3.6c0.9,1,2.2,1.8,3.7,2.5c1.5,0.7,3.2,1.3,5.2,1.9c1.9,0.6,3.9,1.2,6,1.9c2,0.7,4,1.6,6,2.5
										c1.9,1,3.7,2.2,5.2,3.7s2.7,3.3,3.7,5.5c0.9,2.1,1.4,4.7,1.4,7.8c0,3.4-0.6,6.5-1.8,9.5c-1.2,2.9-2.9,5.5-5.1,7.7
										c-2.2,2.2-4.9,3.9-8.2,5.1s-6.9,1.9-11.1,1.9c-2.3,0-4.6-0.2-6.9-0.7c-2.4-0.5-4.6-1.1-6.8-2c-2.2-0.9-4.3-1.9-6.2-3
										c-1.9-1.2-3.6-2.5-5-3.9l5-7.9c0.4-0.6,0.9-1.1,1.5-1.4c0.7-0.4,1.4-0.6,2.2-0.6c1,0,2,0.3,3,1c1,0.6,2.2,1.3,3.4,2.1
										c1.3,0.8,2.8,1.5,4.4,2.1c1.7,0.6,3.6,1,5.9,1c3.1,0,5.4-0.7,7.1-2c1.7-1.4,2.6-3.5,2.6-6.4c0-1.7-0.5-3.1-1.4-4.1
										c-0.9-1.1-2.2-1.9-3.7-2.6c-1.5-0.7-3.2-1.3-5.2-1.9c-1.9-0.5-3.9-1.1-5.9-1.8c-2-0.6-4-1.5-6-2.4c-1.9-1-3.7-2.2-5.2-3.8
										c-1.5-1.6-2.7-3.5-3.7-5.8c-0.9-2.3-1.4-5.2-1.4-8.6c0-2.7,0.6-5.4,1.7-8c1.1-2.6,2.7-4.9,4.8-7c2.1-2,4.8-3.7,7.9-4.9
										c3.1-1.2,6.6-1.8,10.6-1.8c2.2,0,4.4,0.2,6.5,0.5c2.1,0.4,4.1,0.9,6,1.5c1.9,0.7,3.7,1.5,5.3,2.5c1.7,0.9,3.1,2,4.4,3.2
										L220.4,116.3z"/>
								</defs>
								<clipPath id="SVGID_68_">
									<use xlink:href="#SVGID_67_"  overflow="visible"/>
								</clipPath>
								<g clip-path="url(#SVGID_68_)">
									<defs>
										<rect id="SVGID_69_" x="174" y="100.2" width="52" height="75"/>
									</defs>
									<clipPath id="SVGID_70_">
										<use xlink:href="#SVGID_69_"  overflow="visible"/>
									</clipPath>
									<rect x="169.5" y="95.7" clip-path="url(#SVGID_70_)" width="61.1" height="84.4"/>
								</g>
							</g>
						</g>
					</g>
				</g>
			</g>
			<g clip-path="url(#SVGID_4_)">
				<defs>
					<rect id="SVGID_71_" x="46" y="26.7" width="283.6" height="148.5"/>
				</defs>
				<clipPath id="SVGID_72_">
					<use xlink:href="#SVGID_71_"  overflow="visible"/>
				</clipPath>
				<g clip-path="url(#SVGID_72_)">
					<defs>
						<rect id="SVGID_73_" y="-141.8" width="375" height="667"/>
					</defs>
					<clipPath id="SVGID_74_">
						<use xlink:href="#SVGID_73_"  overflow="visible"/>
					</clipPath>
					<g clip-path="url(#SVGID_74_)" enable-background="new    ">
						<g>
							<defs>
								<rect id="SVGID_75_" x="72" y="39.2" width="258" height="136"/>
							</defs>
							<clipPath id="SVGID_76_">
								<use xlink:href="#SVGID_75_"  overflow="visible"/>
							</clipPath>
							<g clip-path="url(#SVGID_76_)">
								<defs>
									<rect id="SVGID_77_" x="235.5" y="101.5" width="17" height="72.9"/>
								</defs>
								<clipPath id="SVGID_78_">
									<use xlink:href="#SVGID_77_"  overflow="visible"/>
								</clipPath>
								<g clip-path="url(#SVGID_78_)">
									<defs>
										<rect id="SVGID_79_" x="72" y="39.2" width="258" height="136"/>
									</defs>
									<clipPath id="SVGID_80_">
										<use xlink:href="#SVGID_79_"  overflow="visible"/>
									</clipPath>
									<rect x="230.5" y="96.5" clip-path="url(#SVGID_80_)" width="27" height="82.9"/>
								</g>
							</g>
							<g clip-path="url(#SVGID_76_)">
								<defs>
									<path id="SVGID_81_" d="M276.7,101.6c0.5,0.1,1,0.2,1.4,0.4c0.4,0.2,0.8,0.4,1.1,0.8c0.4,0.3,0.8,0.8,1.2,1.4l34.6,43.8
										c-0.1-1.4-0.2-2.8-0.3-4.1c-0.1-1.3-0.1-2.6-0.1-3.7v-38.6h14.9v72.9h-8.8c-1.3,0-2.4-0.2-3.3-0.6
										c-0.9-0.4-1.8-1.1-2.6-2.2l-34.4-43.4c0.1,1.3,0.2,2.5,0.2,3.7c0.1,1.2,0.1,2.4,0.1,3.4v39H266v-72.9h8.9
										C275.6,101.5,276.2,101.5,276.7,101.6"/>
								</defs>
								<clipPath id="SVGID_82_">
									<use xlink:href="#SVGID_81_"  overflow="visible"/>
								</clipPath>
								<g clip-path="url(#SVGID_82_)">
									<defs>
										<rect id="SVGID_83_" x="72" y="39.2" width="258" height="136"/>
									</defs>
									<clipPath id="SVGID_84_">
										<use xlink:href="#SVGID_83_"  overflow="visible"/>
									</clipPath>
									<rect x="261" y="96.5" clip-path="url(#SVGID_84_)" width="73.6" height="82.9"/>
								</g>
							</g>
							<g clip-path="url(#SVGID_76_)">
								<defs>
									<path id="SVGID_85_" d="M114.5,52.5c-0.4-1.3-0.9-2.8-1.5-4.5c-0.6-1.7-1.2-3.6-1.7-5.6c-0.5,2-1.1,3.9-1.7,5.7
										c-0.6,1.7-1.1,3.2-1.6,4.5l-6.7,19.8h19.9L114.5,52.5z"/>
								</defs>
								<clipPath id="SVGID_86_">
									<use xlink:href="#SVGID_85_"  overflow="visible"/>
								</clipPath>
								<g clip-path="url(#SVGID_86_)">
									<defs>
										<rect id="SVGID_87_" x="72" y="39.2" width="258" height="136"/>
									</defs>
									<clipPath id="SVGID_88_">
										<use xlink:href="#SVGID_87_"  overflow="visible"/>
									</clipPath>
								</g>
							</g>
							<g clip-path="url(#SVGID_76_)">
								<defs>
									<path id="SVGID_89_" d="M189.2,60.1c1.9-2.1,2.9-5,2.9-8.8c0-1.7-0.2-3.2-0.8-4.5c-0.5-1.4-1.3-2.5-2.3-3.5
										c-1-1-2.3-1.7-3.9-2.3c-1.5-0.5-3.4-0.8-5.5-0.8h-8.8v23.1h8.8C184.1,63.2,187.2,62.2,189.2,60.1"/>
								</defs>
								<clipPath id="SVGID_90_">
									<use xlink:href="#SVGID_89_"  overflow="visible"/>
								</clipPath>
								<g clip-path="url(#SVGID_90_)">
									<defs>
										<rect id="SVGID_91_" x="72" y="39.2" width="258" height="136"/>
									</defs>
									<clipPath id="SVGID_92_">
										<use xlink:href="#SVGID_91_"  overflow="visible"/>
									</clipPath>
								</g>
							</g>
							<g clip-path="url(#SVGID_76_)">
								<defs>
									<path id="SVGID_93_" d="M84.6,122.1c-0.6-1.7-1.2-3.6-1.7-5.6c-0.5,2-1.1,3.9-1.7,5.6c-0.6,1.7-1.1,3.2-1.6,4.5l-6.7,19.9
										h19.9l-6.7-20C85.7,125.3,85.1,123.8,84.6,122.1"/>
								</defs>
								<clipPath id="SVGID_94_">
									<use xlink:href="#SVGID_93_"  overflow="visible"/>
								</clipPath>
								<g clip-path="url(#SVGID_94_)">
									<defs>
										<rect id="SVGID_95_" x="72" y="39.2" width="258" height="136"/>
									</defs>
									<clipPath id="SVGID_96_">
										<use xlink:href="#SVGID_95_"  overflow="visible"/>
									</clipPath>
								</g>
							</g>
							<g clip-path="url(#SVGID_76_)">
								<defs>
									<path id="SVGID_97_" d="M252.9,43.2c-1-1-2.3-1.7-3.9-2.3c-1.5-0.5-3.4-0.8-5.5-0.8h-8.8v23.1h8.8c4.4,0,7.6-1.1,9.5-3.1
										c1.9-2.1,2.9-5,2.9-8.8c0-1.7-0.2-3.2-0.8-4.5C254.6,45.4,253.9,44.2,252.9,43.2"/>
								</defs>
								<clipPath id="SVGID_98_">
									<use xlink:href="#SVGID_97_"  overflow="visible"/>
								</clipPath>
								<g clip-path="url(#SVGID_98_)">
									<defs>
										<rect id="SVGID_99_" x="72" y="39.2" width="258" height="136"/>
									</defs>
									<clipPath id="SVGID_100_">
										<use xlink:href="#SVGID_99_"  overflow="visible"/>
									</clipPath>
								</g>
							</g>
						</g>
					</g>
				</g>
			</g>
		</g>
	</g>
</g>
</svg>
